<svg width="766" height="289" viewBox="0 0 766 289" fill="none" xmlns="http://www.w3.org/2000/svg">
<g opacity="0.56">
<path d="M3.588 13.144C3.116 13.144 2.672 13.06 2.256 12.892C1.84 12.716 1.48 12.472 1.176 12.16C0.872 11.848 0.656 11.472 0.528 11.032L1.716 10.576C1.868 11 2.116 11.324 2.46 11.548C2.804 11.772 3.18 11.884 3.588 11.884C3.924 11.884 4.22 11.808 4.476 11.656C4.732 11.504 4.932 11.296 5.076 11.032C5.228 10.768 5.304 10.468 5.304 10.132C5.304 9.788 5.228 9.488 5.076 9.232C4.932 8.968 4.732 8.764 4.476 8.62C4.22 8.468 3.924 8.392 3.588 8.392C3.252 8.392 2.944 8.468 2.664 8.62C2.384 8.772 2.18 8.976 2.052 9.232L0.912 8.98L1.608 4.06H6.372V5.26H2.16L2.7 4.672L2.184 8.44L1.74 8.14C1.98 7.804 2.272 7.56 2.616 7.408C2.96 7.256 3.352 7.18 3.792 7.18C4.376 7.18 4.884 7.312 5.316 7.576C5.756 7.832 6.096 8.184 6.336 8.632C6.584 9.072 6.708 9.572 6.708 10.132C6.708 10.7 6.572 11.212 6.3 11.668C6.028 12.124 5.656 12.484 5.184 12.748C4.72 13.012 4.188 13.144 3.588 13.144ZM11.6908 13.144C10.9788 13.144 10.3548 12.952 9.81881 12.568C9.28281 12.176 8.86281 11.636 8.55881 10.948C8.26281 10.252 8.11481 9.444 8.11481 8.524C8.11481 7.596 8.26281 6.788 8.55881 6.1C8.86281 5.412 9.27881 4.876 9.80681 4.492C10.3428 4.108 10.9668 3.916 11.6788 3.916C12.3908 3.916 13.0108 4.108 13.5388 4.492C14.0748 4.876 14.4908 5.416 14.7868 6.112C15.0908 6.8 15.2428 7.604 15.2428 8.524C15.2428 9.444 15.0948 10.252 14.7988 10.948C14.5028 11.636 14.0868 12.176 13.5508 12.568C13.0228 12.952 12.4028 13.144 11.6908 13.144ZM11.6908 11.848C12.1308 11.848 12.5108 11.712 12.8308 11.44C13.1508 11.168 13.3988 10.784 13.5748 10.288C13.7508 9.792 13.8388 9.204 13.8388 8.524C13.8388 7.844 13.7508 7.256 13.5748 6.76C13.3988 6.264 13.1508 5.88 12.8308 5.608C12.5108 5.336 12.1268 5.2 11.6788 5.2C11.2388 5.2 10.8588 5.336 10.5388 5.608C10.2188 5.88 9.97081 6.264 9.79481 6.76C9.61881 7.256 9.53081 7.844 9.53081 8.524C9.53081 9.196 9.61881 9.784 9.79481 10.288C9.97081 10.784 10.2188 11.168 10.5388 11.44C10.8668 11.712 11.2508 11.848 11.6908 11.848ZM17.3647 13V11.44H18.7447V13H17.3647ZM24.4408 13.144C23.7288 13.144 23.1048 12.952 22.5688 12.568C22.0328 12.176 21.6128 11.636 21.3088 10.948C21.0128 10.252 20.8648 9.444 20.8648 8.524C20.8648 7.596 21.0128 6.788 21.3088 6.1C21.6128 5.412 22.0288 4.876 22.5568 4.492C23.0928 4.108 23.7168 3.916 24.4288 3.916C25.1408 3.916 25.7608 4.108 26.2888 4.492C26.8248 4.876 27.2408 5.416 27.5368 6.112C27.8408 6.8 27.9928 7.604 27.9928 8.524C27.9928 9.444 27.8448 10.252 27.5488 10.948C27.2528 11.636 26.8368 12.176 26.3008 12.568C25.7728 12.952 25.1528 13.144 24.4408 13.144ZM24.4408 11.848C24.8808 11.848 25.2608 11.712 25.5808 11.44C25.9008 11.168 26.1488 10.784 26.3248 10.288C26.5008 9.792 26.5888 9.204 26.5888 8.524C26.5888 7.844 26.5008 7.256 26.3248 6.76C26.1488 6.264 25.9008 5.88 25.5808 5.608C25.2608 5.336 24.8768 5.2 24.4288 5.2C23.9888 5.2 23.6088 5.336 23.2888 5.608C22.9688 5.88 22.7208 6.264 22.5448 6.76C22.3688 7.256 22.2808 7.844 22.2808 8.524C22.2808 9.196 22.3688 9.784 22.5448 10.288C22.7208 10.784 22.9688 11.168 23.2888 11.44C23.6168 11.712 24.0008 11.848 24.4408 11.848ZM33.0307 13.144C32.3187 13.144 31.6947 12.952 31.1587 12.568C30.6227 12.176 30.2027 11.636 29.8987 10.948C29.6027 10.252 29.4547 9.444 29.4547 8.524C29.4547 7.596 29.6027 6.788 29.8987 6.1C30.2027 5.412 30.6187 4.876 31.1467 4.492C31.6827 4.108 32.3067 3.916 33.0187 3.916C33.7307 3.916 34.3507 4.108 34.8787 4.492C35.4147 4.876 35.8307 5.416 36.1267 6.112C36.4307 6.8 36.5827 7.604 36.5827 8.524C36.5827 9.444 36.4347 10.252 36.1387 10.948C35.8427 11.636 35.4267 12.176 34.8907 12.568C34.3627 12.952 33.7427 13.144 33.0307 13.144ZM33.0307 11.848C33.4707 11.848 33.8507 11.712 34.1707 11.44C34.4907 11.168 34.7387 10.784 34.9147 10.288C35.0907 9.792 35.1787 9.204 35.1787 8.524C35.1787 7.844 35.0907 7.256 34.9147 6.76C34.7387 6.264 34.4907 5.88 34.1707 5.608C33.8507 5.336 33.4667 5.2 33.0187 5.2C32.5787 5.2 32.1987 5.336 31.8787 5.608C31.5587 5.88 31.3107 6.264 31.1347 6.76C30.9587 7.256 30.8707 7.844 30.8707 8.524C30.8707 9.196 30.9587 9.784 31.1347 10.288C31.3107 10.784 31.5587 11.168 31.8787 11.44C32.2067 11.712 32.5907 11.848 33.0307 11.848ZM41.6205 13.144C40.9085 13.144 40.2845 12.952 39.7485 12.568C39.2125 12.176 38.7925 11.636 38.4885 10.948C38.1925 10.252 38.0445 9.444 38.0445 8.524C38.0445 7.596 38.1925 6.788 38.4885 6.1C38.7925 5.412 39.2085 4.876 39.7365 4.492C40.2725 4.108 40.8965 3.916 41.6085 3.916C42.3205 3.916 42.9405 4.108 43.4685 4.492C44.0045 4.876 44.4205 5.416 44.7165 6.112C45.0205 6.8 45.1725 7.604 45.1725 8.524C45.1725 9.444 45.0245 10.252 44.7285 10.948C44.4325 11.636 44.0165 12.176 43.4805 12.568C42.9525 12.952 42.3325 13.144 41.6205 13.144ZM41.6205 11.848C42.0605 11.848 42.4405 11.712 42.7605 11.44C43.0805 11.168 43.3285 10.784 43.5045 10.288C43.6805 9.792 43.7685 9.204 43.7685 8.524C43.7685 7.844 43.6805 7.256 43.5045 6.76C43.3285 6.264 43.0805 5.88 42.7605 5.608C42.4405 5.336 42.0565 5.2 41.6085 5.2C41.1685 5.2 40.7885 5.336 40.4685 5.608C40.1485 5.88 39.9005 6.264 39.7245 6.76C39.5485 7.256 39.4605 7.844 39.4605 8.524C39.4605 9.196 39.5485 9.784 39.7245 10.288C39.9005 10.784 40.1485 11.168 40.4685 11.44C40.7965 11.712 41.1805 11.848 41.6205 11.848Z" fill="#525252"/>
<path d="M4.728 52.8333V50.8173H0.468V49.6413L4.668 43.8933H6.072V49.6413H7.308V50.8173H6.072V52.8333H4.728ZM1.512 50.1573L1.284 49.6413H4.728V45.0213L5.112 45.1413L1.512 50.1573ZM12.0658 52.9773C11.3538 52.9773 10.7298 52.7853 10.1938 52.4013C9.65781 52.0093 9.23781 51.4693 8.93381 50.7813C8.63781 50.0853 8.48981 49.2773 8.48981 48.3573C8.48981 47.4293 8.63781 46.6213 8.93381 45.9333C9.23781 45.2453 9.65381 44.7093 10.1818 44.3253C10.7178 43.9413 11.3418 43.7493 12.0538 43.7493C12.7658 43.7493 13.3858 43.9413 13.9138 44.3253C14.4498 44.7093 14.8658 45.2493 15.1618 45.9453C15.4658 46.6333 15.6178 47.4373 15.6178 48.3573C15.6178 49.2773 15.4698 50.0853 15.1738 50.7813C14.8778 51.4693 14.4618 52.0093 13.9258 52.4013C13.3978 52.7853 12.7778 52.9773 12.0658 52.9773ZM12.0658 51.6813C12.5058 51.6813 12.8858 51.5453 13.2058 51.2733C13.5258 51.0013 13.7738 50.6173 13.9498 50.1213C14.1258 49.6253 14.2138 49.0373 14.2138 48.3573C14.2138 47.6773 14.1258 47.0893 13.9498 46.5933C13.7738 46.0973 13.5258 45.7133 13.2058 45.4413C12.8858 45.1693 12.5018 45.0333 12.0538 45.0333C11.6138 45.0333 11.2338 45.1693 10.9138 45.4413C10.5938 45.7133 10.3458 46.0973 10.1698 46.5933C9.99381 47.0893 9.90581 47.6773 9.90581 48.3573C9.90581 49.0293 9.99381 49.6173 10.1698 50.1213C10.3458 50.6173 10.5938 51.0013 10.9138 51.2733C11.2418 51.5453 11.6258 51.6813 12.0658 51.6813ZM17.7397 52.8333V51.2733H19.1197V52.8333H17.7397ZM24.8158 52.9773C24.1038 52.9773 23.4798 52.7853 22.9438 52.4013C22.4078 52.0093 21.9878 51.4693 21.6838 50.7813C21.3878 50.0853 21.2398 49.2773 21.2398 48.3573C21.2398 47.4293 21.3878 46.6213 21.6838 45.9333C21.9878 45.2453 22.4038 44.7093 22.9318 44.3253C23.4678 43.9413 24.0918 43.7493 24.8038 43.7493C25.5158 43.7493 26.1358 43.9413 26.6638 44.3253C27.1998 44.7093 27.6158 45.2493 27.9118 45.9453C28.2158 46.6333 28.3678 47.4373 28.3678 48.3573C28.3678 49.2773 28.2198 50.0853 27.9238 50.7813C27.6278 51.4693 27.2118 52.0093 26.6758 52.4013C26.1478 52.7853 25.5278 52.9773 24.8158 52.9773ZM24.8158 51.6813C25.2558 51.6813 25.6358 51.5453 25.9558 51.2733C26.2758 51.0013 26.5238 50.6173 26.6998 50.1213C26.8758 49.6253 26.9638 49.0373 26.9638 48.3573C26.9638 47.6773 26.8758 47.0893 26.6998 46.5933C26.5238 46.0973 26.2758 45.7133 25.9558 45.4413C25.6358 45.1693 25.2518 45.0333 24.8038 45.0333C24.3638 45.0333 23.9838 45.1693 23.6638 45.4413C23.3438 45.7133 23.0958 46.0973 22.9198 46.5933C22.7438 47.0893 22.6558 47.6773 22.6558 48.3573C22.6558 49.0293 22.7438 49.6173 22.9198 50.1213C23.0958 50.6173 23.3438 51.0013 23.6638 51.2733C23.9918 51.5453 24.3758 51.6813 24.8158 51.6813ZM33.4057 52.9773C32.6937 52.9773 32.0697 52.7853 31.5337 52.4013C30.9977 52.0093 30.5777 51.4693 30.2737 50.7813C29.9777 50.0853 29.8297 49.2773 29.8297 48.3573C29.8297 47.4293 29.9777 46.6213 30.2737 45.9333C30.5777 45.2453 30.9937 44.7093 31.5217 44.3253C32.0577 43.9413 32.6817 43.7493 33.3937 43.7493C34.1057 43.7493 34.7257 43.9413 35.2537 44.3253C35.7897 44.7093 36.2057 45.2493 36.5017 45.9453C36.8057 46.6333 36.9577 47.4373 36.9577 48.3573C36.9577 49.2773 36.8097 50.0853 36.5137 50.7813C36.2177 51.4693 35.8017 52.0093 35.2657 52.4013C34.7377 52.7853 34.1177 52.9773 33.4057 52.9773ZM33.4057 51.6813C33.8457 51.6813 34.2257 51.5453 34.5457 51.2733C34.8657 51.0013 35.1137 50.6173 35.2897 50.1213C35.4657 49.6253 35.5537 49.0373 35.5537 48.3573C35.5537 47.6773 35.4657 47.0893 35.2897 46.5933C35.1137 46.0973 34.8657 45.7133 34.5457 45.4413C34.2257 45.1693 33.8417 45.0333 33.3937 45.0333C32.9537 45.0333 32.5737 45.1693 32.2537 45.4413C31.9337 45.7133 31.6857 46.0973 31.5097 46.5933C31.3337 47.0893 31.2457 47.6773 31.2457 48.3573C31.2457 49.0293 31.3337 49.6173 31.5097 50.1213C31.6857 50.6173 31.9337 51.0013 32.2537 51.2733C32.5817 51.5453 32.9657 51.6813 33.4057 51.6813ZM41.9955 52.9773C41.2835 52.9773 40.6595 52.7853 40.1235 52.4013C39.5875 52.0093 39.1675 51.4693 38.8635 50.7813C38.5675 50.0853 38.4195 49.2773 38.4195 48.3573C38.4195 47.4293 38.5675 46.6213 38.8635 45.9333C39.1675 45.2453 39.5835 44.7093 40.1115 44.3253C40.6475 43.9413 41.2715 43.7493 41.9835 43.7493C42.6955 43.7493 43.3155 43.9413 43.8435 44.3253C44.3795 44.7093 44.7955 45.2493 45.0915 45.9453C45.3955 46.6333 45.5475 47.4373 45.5475 48.3573C45.5475 49.2773 45.3995 50.0853 45.1035 50.7813C44.8075 51.4693 44.3915 52.0093 43.8555 52.4013C43.3275 52.7853 42.7075 52.9773 41.9955 52.9773ZM41.9955 51.6813C42.4355 51.6813 42.8155 51.5453 43.1355 51.2733C43.4555 51.0013 43.7035 50.6173 43.8795 50.1213C44.0555 49.6253 44.1435 49.0373 44.1435 48.3573C44.1435 47.6773 44.0555 47.0893 43.8795 46.5933C43.7035 46.0973 43.4555 45.7133 43.1355 45.4413C42.8155 45.1693 42.4315 45.0333 41.9835 45.0333C41.5435 45.0333 41.1635 45.1693 40.8435 45.4413C40.5235 45.7133 40.2755 46.0973 40.0995 46.5933C39.9235 47.0893 39.8355 47.6773 39.8355 48.3573C39.8355 49.0293 39.9235 49.6173 40.0995 50.1213C40.2755 50.6173 40.5235 51.0013 40.8435 51.2733C41.1715 51.5453 41.5555 51.6813 41.9955 51.6813Z" fill="#525252"/>
<path d="M3.516 92.8107C3.036 92.8107 2.584 92.7227 2.16 92.5467C1.744 92.3707 1.384 92.1227 1.08 91.8027C0.784 91.4827 0.572 91.1067 0.444 90.6747L1.644 90.2187C1.804 90.6427 2.048 90.9707 2.376 91.2027C2.704 91.4347 3.084 91.5507 3.516 91.5507C3.868 91.5507 4.172 91.4827 4.428 91.3467C4.692 91.2107 4.896 91.0187 5.04 90.7707C5.192 90.5227 5.268 90.2227 5.268 89.8707C5.268 89.5267 5.192 89.2307 5.04 88.9827C4.896 88.7347 4.692 88.5467 4.428 88.4187C4.172 88.2907 3.868 88.2267 3.516 88.2267C3.372 88.2267 3.224 88.2387 3.072 88.2627C2.928 88.2867 2.8 88.3187 2.688 88.3587L2.376 87.6987L4.728 84.9267H0.924V83.7267H6.312V84.8667L4.008 87.6267L3.972 87.1707C4.508 87.1787 4.98 87.2987 5.388 87.5307C5.796 87.7547 6.112 88.0667 6.336 88.4667C6.568 88.8587 6.684 89.3147 6.684 89.8347C6.684 90.3947 6.548 90.9027 6.276 91.3587C6.004 91.8067 5.628 92.1627 5.148 92.4267C4.676 92.6827 4.132 92.8107 3.516 92.8107ZM11.6439 92.8107C10.9319 92.8107 10.3079 92.6187 9.77194 92.2347C9.23594 91.8427 8.81594 91.3027 8.51194 90.6147C8.21594 89.9187 8.06794 89.1107 8.06794 88.1907C8.06794 87.2627 8.21594 86.4547 8.51194 85.7667C8.81594 85.0787 9.23194 84.5427 9.75994 84.1587C10.2959 83.7747 10.9199 83.5827 11.6319 83.5827C12.3439 83.5827 12.9639 83.7747 13.4919 84.1587C14.0279 84.5427 14.4439 85.0827 14.7399 85.7787C15.0439 86.4667 15.1959 87.2707 15.1959 88.1907C15.1959 89.1107 15.0479 89.9187 14.7519 90.6147C14.4559 91.3027 14.0399 91.8427 13.5039 92.2347C12.9759 92.6187 12.3559 92.8107 11.6439 92.8107ZM11.6439 91.5147C12.0839 91.5147 12.4639 91.3787 12.7839 91.1067C13.1039 90.8347 13.3519 90.4507 13.5279 89.9547C13.7039 89.4587 13.7919 88.8707 13.7919 88.1907C13.7919 87.5107 13.7039 86.9227 13.5279 86.4267C13.3519 85.9307 13.1039 85.5467 12.7839 85.2747C12.4639 85.0027 12.0799 84.8667 11.6319 84.8667C11.1919 84.8667 10.8119 85.0027 10.4919 85.2747C10.1719 85.5467 9.92394 85.9307 9.74794 86.4267C9.57194 86.9227 9.48394 87.5107 9.48394 88.1907C9.48394 88.8627 9.57194 89.4507 9.74794 89.9547C9.92394 90.4507 10.1719 90.8347 10.4919 91.1067C10.8199 91.3787 11.2039 91.5147 11.6439 91.5147ZM17.3178 92.6667V91.1067H18.6978V92.6667H17.3178ZM24.3939 92.8107C23.6819 92.8107 23.0579 92.6187 22.5219 92.2347C21.9859 91.8427 21.5659 91.3027 21.2619 90.6147C20.9659 89.9187 20.8179 89.1107 20.8179 88.1907C20.8179 87.2627 20.9659 86.4547 21.2619 85.7667C21.5659 85.0787 21.9819 84.5427 22.5099 84.1587C23.0459 83.7747 23.6699 83.5827 24.3819 83.5827C25.0939 83.5827 25.7139 83.7747 26.2419 84.1587C26.7779 84.5427 27.1939 85.0827 27.4899 85.7787C27.7939 86.4667 27.9459 87.2707 27.9459 88.1907C27.9459 89.1107 27.7979 89.9187 27.5019 90.6147C27.2059 91.3027 26.7899 91.8427 26.2539 92.2347C25.7259 92.6187 25.1059 92.8107 24.3939 92.8107ZM24.3939 91.5147C24.8339 91.5147 25.2139 91.3787 25.5339 91.1067C25.8539 90.8347 26.1019 90.4507 26.2779 89.9547C26.4539 89.4587 26.5419 88.8707 26.5419 88.1907C26.5419 87.5107 26.4539 86.9227 26.2779 86.4267C26.1019 85.9307 25.8539 85.5467 25.5339 85.2747C25.2139 85.0027 24.8299 84.8667 24.3819 84.8667C23.9419 84.8667 23.5619 85.0027 23.2419 85.2747C22.9219 85.5467 22.6739 85.9307 22.4979 86.4267C22.3219 86.9227 22.2339 87.5107 22.2339 88.1907C22.2339 88.8627 22.3219 89.4507 22.4979 89.9547C22.6739 90.4507 22.9219 90.8347 23.2419 91.1067C23.5699 91.3787 23.9539 91.5147 24.3939 91.5147ZM32.9838 92.8107C32.2718 92.8107 31.6478 92.6187 31.1118 92.2347C30.5758 91.8427 30.1558 91.3027 29.8518 90.6147C29.5558 89.9187 29.4078 89.1107 29.4078 88.1907C29.4078 87.2627 29.5558 86.4547 29.8518 85.7667C30.1558 85.0787 30.5718 84.5427 31.0998 84.1587C31.6358 83.7747 32.2598 83.5827 32.9718 83.5827C33.6838 83.5827 34.3038 83.7747 34.8318 84.1587C35.3678 84.5427 35.7838 85.0827 36.0798 85.7787C36.3838 86.4667 36.5358 87.2707 36.5358 88.1907C36.5358 89.1107 36.3878 89.9187 36.0918 90.6147C35.7958 91.3027 35.3798 91.8427 34.8438 92.2347C34.3158 92.6187 33.6958 92.8107 32.9838 92.8107ZM32.9838 91.5147C33.4238 91.5147 33.8038 91.3787 34.1238 91.1067C34.4438 90.8347 34.6918 90.4507 34.8678 89.9547C35.0438 89.4587 35.1318 88.8707 35.1318 88.1907C35.1318 87.5107 35.0438 86.9227 34.8678 86.4267C34.6918 85.9307 34.4438 85.5467 34.1238 85.2747C33.8038 85.0027 33.4198 84.8667 32.9718 84.8667C32.5318 84.8667 32.1518 85.0027 31.8318 85.2747C31.5118 85.5467 31.2638 85.9307 31.0878 86.4267C30.9118 86.9227 30.8238 87.5107 30.8238 88.1907C30.8238 88.8627 30.9118 89.4507 31.0878 89.9547C31.2638 90.4507 31.5118 90.8347 31.8318 91.1067C32.1598 91.3787 32.5438 91.5147 32.9838 91.5147ZM41.5736 92.8107C40.8616 92.8107 40.2376 92.6187 39.7016 92.2347C39.1656 91.8427 38.7456 91.3027 38.4416 90.6147C38.1456 89.9187 37.9976 89.1107 37.9976 88.1907C37.9976 87.2627 38.1456 86.4547 38.4416 85.7667C38.7456 85.0787 39.1616 84.5427 39.6896 84.1587C40.2256 83.7747 40.8496 83.5827 41.5616 83.5827C42.2736 83.5827 42.8936 83.7747 43.4216 84.1587C43.9576 84.5427 44.3736 85.0827 44.6696 85.7787C44.9736 86.4667 45.1256 87.2707 45.1256 88.1907C45.1256 89.1107 44.9776 89.9187 44.6816 90.6147C44.3856 91.3027 43.9696 91.8427 43.4336 92.2347C42.9056 92.6187 42.2856 92.8107 41.5736 92.8107ZM41.5736 91.5147C42.0136 91.5147 42.3936 91.3787 42.7136 91.1067C43.0336 90.8347 43.2816 90.4507 43.4576 89.9547C43.6336 89.4587 43.7216 88.8707 43.7216 88.1907C43.7216 87.5107 43.6336 86.9227 43.4576 86.4267C43.2816 85.9307 43.0336 85.5467 42.7136 85.2747C42.3936 85.0027 42.0096 84.8667 41.5616 84.8667C41.1216 84.8667 40.7416 85.0027 40.4216 85.2747C40.1016 85.5467 39.8536 85.9307 39.6776 86.4267C39.5016 86.9227 39.4136 87.5107 39.4136 88.1907C39.4136 88.8627 39.5016 89.4507 39.6776 89.9547C39.8536 90.4507 40.1016 90.8347 40.4216 91.1067C40.7496 91.3787 41.1336 91.5147 41.5736 91.5147Z" fill="#525252"/>
<path d="M0.6 132.5V131.48L3.048 128.864C3.528 128.352 3.904 127.94 4.176 127.628C4.456 127.308 4.656 127.028 4.776 126.788C4.904 126.548 4.968 126.296 4.968 126.032C4.968 125.6 4.836 125.268 4.572 125.036C4.308 124.796 3.968 124.676 3.552 124.676C3.12 124.676 2.748 124.8 2.436 125.048C2.124 125.288 1.908 125.64 1.788 126.104L0.54 125.744C0.636 125.272 0.828 124.864 1.116 124.52C1.404 124.168 1.756 123.896 2.172 123.704C2.596 123.512 3.052 123.416 3.54 123.416C4.108 123.416 4.604 123.524 5.028 123.74C5.452 123.948 5.78 124.24 6.012 124.616C6.252 124.992 6.372 125.428 6.372 125.924C6.372 126.252 6.308 126.572 6.18 126.884C6.06 127.188 5.872 127.512 5.616 127.856C5.36 128.192 5.032 128.572 4.632 128.996L2.472 131.3H6.54V132.5H0.6ZM11.4799 132.644C10.7679 132.644 10.1439 132.452 9.60788 132.068C9.07188 131.676 8.65188 131.136 8.34788 130.448C8.05188 129.752 7.90388 128.944 7.90388 128.024C7.90388 127.096 8.05188 126.288 8.34788 125.6C8.65188 124.912 9.06788 124.376 9.59588 123.992C10.1319 123.608 10.7559 123.416 11.4679 123.416C12.1799 123.416 12.7999 123.608 13.3279 123.992C13.8639 124.376 14.2799 124.916 14.5759 125.612C14.8799 126.3 15.0319 127.104 15.0319 128.024C15.0319 128.944 14.8839 129.752 14.5879 130.448C14.2919 131.136 13.8759 131.676 13.3399 132.068C12.8119 132.452 12.1919 132.644 11.4799 132.644ZM11.4799 131.348C11.9199 131.348 12.2999 131.212 12.6199 130.94C12.9399 130.668 13.1879 130.284 13.3639 129.788C13.5399 129.292 13.6279 128.704 13.6279 128.024C13.6279 127.344 13.5399 126.756 13.3639 126.26C13.1879 125.764 12.9399 125.38 12.6199 125.108C12.2999 124.836 11.9159 124.7 11.4679 124.7C11.0279 124.7 10.6479 124.836 10.3279 125.108C10.0079 125.38 9.75988 125.764 9.58388 126.26C9.40788 126.756 9.31988 127.344 9.31988 128.024C9.31988 128.696 9.40788 129.284 9.58388 129.788C9.75988 130.284 10.0079 130.668 10.3279 130.94C10.6559 131.212 11.0399 131.348 11.4799 131.348ZM17.1537 132.5V130.94H18.5337V132.5H17.1537ZM24.2299 132.644C23.5179 132.644 22.8939 132.452 22.3579 132.068C21.8219 131.676 21.4019 131.136 21.0979 130.448C20.8019 129.752 20.6539 128.944 20.6539 128.024C20.6539 127.096 20.8019 126.288 21.0979 125.6C21.4019 124.912 21.8179 124.376 22.3459 123.992C22.8819 123.608 23.5059 123.416 24.2179 123.416C24.9299 123.416 25.5499 123.608 26.0779 123.992C26.6139 124.376 27.0299 124.916 27.3259 125.612C27.6299 126.3 27.7819 127.104 27.7819 128.024C27.7819 128.944 27.6339 129.752 27.3379 130.448C27.0419 131.136 26.6259 131.676 26.0899 132.068C25.5619 132.452 24.9419 132.644 24.2299 132.644ZM24.2299 131.348C24.6699 131.348 25.0499 131.212 25.3699 130.94C25.6899 130.668 25.9379 130.284 26.1139 129.788C26.2899 129.292 26.3779 128.704 26.3779 128.024C26.3779 127.344 26.2899 126.756 26.1139 126.26C25.9379 125.764 25.6899 125.38 25.3699 125.108C25.0499 124.836 24.6659 124.7 24.2179 124.7C23.7779 124.7 23.3979 124.836 23.0779 125.108C22.7579 125.38 22.5099 125.764 22.3339 126.26C22.1579 126.756 22.0699 127.344 22.0699 128.024C22.0699 128.696 22.1579 129.284 22.3339 129.788C22.5099 130.284 22.7579 130.668 23.0779 130.94C23.4059 131.212 23.7899 131.348 24.2299 131.348ZM32.8197 132.644C32.1077 132.644 31.4837 132.452 30.9477 132.068C30.4117 131.676 29.9917 131.136 29.6877 130.448C29.3917 129.752 29.2437 128.944 29.2437 128.024C29.2437 127.096 29.3917 126.288 29.6877 125.6C29.9917 124.912 30.4077 124.376 30.9357 123.992C31.4717 123.608 32.0957 123.416 32.8077 123.416C33.5197 123.416 34.1397 123.608 34.6677 123.992C35.2037 124.376 35.6197 124.916 35.9157 125.612C36.2197 126.3 36.3717 127.104 36.3717 128.024C36.3717 128.944 36.2237 129.752 35.9277 130.448C35.6317 131.136 35.2157 131.676 34.6797 132.068C34.1517 132.452 33.5317 132.644 32.8197 132.644ZM32.8197 131.348C33.2597 131.348 33.6397 131.212 33.9597 130.94C34.2797 130.668 34.5277 130.284 34.7037 129.788C34.8797 129.292 34.9677 128.704 34.9677 128.024C34.9677 127.344 34.8797 126.756 34.7037 126.26C34.5277 125.764 34.2797 125.38 33.9597 125.108C33.6397 124.836 33.2557 124.7 32.8077 124.7C32.3677 124.7 31.9877 124.836 31.6677 125.108C31.3477 125.38 31.0997 125.764 30.9237 126.26C30.7477 126.756 30.6597 127.344 30.6597 128.024C30.6597 128.696 30.7477 129.284 30.9237 129.788C31.0997 130.284 31.3477 130.668 31.6677 130.94C31.9957 131.212 32.3797 131.348 32.8197 131.348ZM41.4096 132.644C40.6976 132.644 40.0736 132.452 39.5376 132.068C39.0016 131.676 38.5816 131.136 38.2776 130.448C37.9816 129.752 37.8336 128.944 37.8336 128.024C37.8336 127.096 37.9816 126.288 38.2776 125.6C38.5816 124.912 38.9976 124.376 39.5256 123.992C40.0616 123.608 40.6856 123.416 41.3976 123.416C42.1096 123.416 42.7296 123.608 43.2576 123.992C43.7936 124.376 44.2096 124.916 44.5056 125.612C44.8096 126.3 44.9616 127.104 44.9616 128.024C44.9616 128.944 44.8136 129.752 44.5176 130.448C44.2216 131.136 43.8056 131.676 43.2696 132.068C42.7416 132.452 42.1216 132.644 41.4096 132.644ZM41.4096 131.348C41.8496 131.348 42.2296 131.212 42.5496 130.94C42.8696 130.668 43.1176 130.284 43.2936 129.788C43.4696 129.292 43.5576 128.704 43.5576 128.024C43.5576 127.344 43.4696 126.756 43.2936 126.26C43.1176 125.764 42.8696 125.38 42.5496 125.108C42.2296 124.836 41.8456 124.7 41.3976 124.7C40.9576 124.7 40.5776 124.836 40.2576 125.108C39.9376 125.38 39.6896 125.764 39.5136 126.26C39.3376 126.756 39.2496 127.344 39.2496 128.024C39.2496 128.696 39.3376 129.284 39.5136 129.788C39.6896 130.284 39.9376 130.668 40.2576 130.94C40.5856 131.212 40.9696 131.348 41.4096 131.348Z" fill="#525252"/>
<path d="M2.112 172.333V164.593H0.396V163.393H3.516V172.333H2.112ZM9.00722 172.477C8.29522 172.477 7.67122 172.285 7.13522 171.901C6.59922 171.509 6.17922 170.969 5.87522 170.281C5.57922 169.585 5.43122 168.777 5.43122 167.857C5.43122 166.929 5.57922 166.121 5.87522 165.433C6.17922 164.745 6.59522 164.209 7.12322 163.825C7.65922 163.441 8.28322 163.249 8.99522 163.249C9.70722 163.249 10.3272 163.441 10.8552 163.825C11.3912 164.209 11.8072 164.749 12.1032 165.445C12.4072 166.133 12.5592 166.937 12.5592 167.857C12.5592 168.777 12.4112 169.585 12.1152 170.281C11.8192 170.969 11.4032 171.509 10.8672 171.901C10.3392 172.285 9.71922 172.477 9.00722 172.477ZM9.00722 171.181C9.44722 171.181 9.82722 171.045 10.1472 170.773C10.4672 170.501 10.7152 170.117 10.8912 169.621C11.0672 169.125 11.1552 168.537 11.1552 167.857C11.1552 167.177 11.0672 166.589 10.8912 166.093C10.7152 165.597 10.4672 165.213 10.1472 164.941C9.82722 164.669 9.44322 164.533 8.99522 164.533C8.55522 164.533 8.17522 164.669 7.85522 164.941C7.53522 165.213 7.28722 165.597 7.11122 166.093C6.93522 166.589 6.84722 167.177 6.84722 167.857C6.84722 168.529 6.93522 169.117 7.11122 169.621C7.28722 170.117 7.53522 170.501 7.85522 170.773C8.18322 171.045 8.56722 171.181 9.00722 171.181ZM14.6811 172.333V170.773H16.0611V172.333H14.6811ZM21.7572 172.477C21.0452 172.477 20.4212 172.285 19.8852 171.901C19.3492 171.509 18.9292 170.969 18.6252 170.281C18.3292 169.585 18.1812 168.777 18.1812 167.857C18.1812 166.929 18.3292 166.121 18.6252 165.433C18.9292 164.745 19.3452 164.209 19.8732 163.825C20.4092 163.441 21.0332 163.249 21.7452 163.249C22.4572 163.249 23.0772 163.441 23.6052 163.825C24.1412 164.209 24.5572 164.749 24.8532 165.445C25.1572 166.133 25.3092 166.937 25.3092 167.857C25.3092 168.777 25.1612 169.585 24.8652 170.281C24.5692 170.969 24.1532 171.509 23.6172 171.901C23.0892 172.285 22.4692 172.477 21.7572 172.477ZM21.7572 171.181C22.1972 171.181 22.5772 171.045 22.8972 170.773C23.2172 170.501 23.4652 170.117 23.6412 169.621C23.8172 169.125 23.9052 168.537 23.9052 167.857C23.9052 167.177 23.8172 166.589 23.6412 166.093C23.4652 165.597 23.2172 165.213 22.8972 164.941C22.5772 164.669 22.1932 164.533 21.7452 164.533C21.3052 164.533 20.9252 164.669 20.6052 164.941C20.2852 165.213 20.0372 165.597 19.8612 166.093C19.6852 166.589 19.5972 167.177 19.5972 167.857C19.5972 168.529 19.6852 169.117 19.8612 169.621C20.0372 170.117 20.2852 170.501 20.6052 170.773C20.9332 171.045 21.3172 171.181 21.7572 171.181ZM30.3471 172.477C29.6351 172.477 29.0111 172.285 28.4751 171.901C27.9391 171.509 27.5191 170.969 27.2151 170.281C26.9191 169.585 26.7711 168.777 26.7711 167.857C26.7711 166.929 26.9191 166.121 27.2151 165.433C27.5191 164.745 27.9351 164.209 28.4631 163.825C28.9991 163.441 29.6231 163.249 30.3351 163.249C31.0471 163.249 31.6671 163.441 32.1951 163.825C32.7311 164.209 33.1471 164.749 33.4431 165.445C33.7471 166.133 33.8991 166.937 33.8991 167.857C33.8991 168.777 33.7511 169.585 33.4551 170.281C33.1591 170.969 32.7431 171.509 32.2071 171.901C31.6791 172.285 31.0591 172.477 30.3471 172.477ZM30.3471 171.181C30.7871 171.181 31.1671 171.045 31.4871 170.773C31.8071 170.501 32.0551 170.117 32.2311 169.621C32.4071 169.125 32.4951 168.537 32.4951 167.857C32.4951 167.177 32.4071 166.589 32.2311 166.093C32.0551 165.597 31.8071 165.213 31.4871 164.941C31.1671 164.669 30.7831 164.533 30.3351 164.533C29.8951 164.533 29.5151 164.669 29.1951 164.941C28.8751 165.213 28.6271 165.597 28.4511 166.093C28.2751 166.589 28.1871 167.177 28.1871 167.857C28.1871 168.529 28.2751 169.117 28.4511 169.621C28.6271 170.117 28.8751 170.501 29.1951 170.773C29.5231 171.045 29.9071 171.181 30.3471 171.181ZM38.9369 172.477C38.2249 172.477 37.6009 172.285 37.0649 171.901C36.5289 171.509 36.1089 170.969 35.8049 170.281C35.5089 169.585 35.3609 168.777 35.3609 167.857C35.3609 166.929 35.5089 166.121 35.8049 165.433C36.1089 164.745 36.5249 164.209 37.0529 163.825C37.5889 163.441 38.2129 163.249 38.9249 163.249C39.6369 163.249 40.2569 163.441 40.7849 163.825C41.3209 164.209 41.7369 164.749 42.0329 165.445C42.3369 166.133 42.4889 166.937 42.4889 167.857C42.4889 168.777 42.3409 169.585 42.0449 170.281C41.7489 170.969 41.3329 171.509 40.7969 171.901C40.2689 172.285 39.6489 172.477 38.9369 172.477ZM38.9369 171.181C39.3769 171.181 39.7569 171.045 40.0769 170.773C40.3969 170.501 40.6449 170.117 40.8209 169.621C40.9969 169.125 41.0849 168.537 41.0849 167.857C41.0849 167.177 40.9969 166.589 40.8209 166.093C40.6449 165.597 40.3969 165.213 40.0769 164.941C39.7569 164.669 39.3729 164.533 38.9249 164.533C38.4849 164.533 38.1049 164.669 37.7849 164.941C37.4649 165.213 37.2169 165.597 37.0409 166.093C36.8649 166.589 36.7769 167.177 36.7769 167.857C36.7769 168.529 36.8649 169.117 37.0409 169.621C37.2169 170.117 37.4649 170.501 37.7849 170.773C38.1129 171.045 38.4969 171.181 38.9369 171.181Z" fill="#525252"/>
<path d="M3.588 212.311C3.116 212.311 2.672 212.227 2.256 212.059C1.84 211.883 1.48 211.639 1.176 211.327C0.872 211.015 0.656 210.639 0.528 210.199L1.716 209.743C1.868 210.167 2.116 210.491 2.46 210.715C2.804 210.939 3.18 211.051 3.588 211.051C3.924 211.051 4.22 210.975 4.476 210.823C4.732 210.671 4.932 210.463 5.076 210.199C5.228 209.935 5.304 209.635 5.304 209.299C5.304 208.955 5.228 208.655 5.076 208.399C4.932 208.135 4.732 207.931 4.476 207.787C4.22 207.635 3.924 207.559 3.588 207.559C3.252 207.559 2.944 207.635 2.664 207.787C2.384 207.939 2.18 208.143 2.052 208.399L0.912 208.147L1.608 203.227H6.372V204.427H2.16L2.7 203.839L2.184 207.607L1.74 207.307C1.98 206.971 2.272 206.727 2.616 206.575C2.96 206.423 3.352 206.347 3.792 206.347C4.376 206.347 4.884 206.479 5.316 206.743C5.756 206.999 6.096 207.351 6.336 207.799C6.584 208.239 6.708 208.739 6.708 209.299C6.708 209.867 6.572 210.379 6.3 210.835C6.028 211.291 5.656 211.651 5.184 211.915C4.72 212.179 4.188 212.311 3.588 212.311ZM8.77481 212.167V210.607H10.1548V212.167H8.77481ZM15.851 212.311C15.139 212.311 14.515 212.119 13.979 211.735C13.443 211.343 13.023 210.803 12.719 210.115C12.423 209.419 12.275 208.611 12.275 207.691C12.275 206.763 12.423 205.955 12.719 205.267C13.023 204.579 13.439 204.043 13.967 203.659C14.503 203.275 15.127 203.083 15.839 203.083C16.551 203.083 17.171 203.275 17.699 203.659C18.235 204.043 18.651 204.583 18.947 205.279C19.251 205.967 19.403 206.771 19.403 207.691C19.403 208.611 19.255 209.419 18.959 210.115C18.663 210.803 18.247 211.343 17.711 211.735C17.183 212.119 16.563 212.311 15.851 212.311ZM15.851 211.015C16.291 211.015 16.671 210.879 16.991 210.607C17.311 210.335 17.559 209.951 17.735 209.455C17.911 208.959 17.999 208.371 17.999 207.691C17.999 207.011 17.911 206.423 17.735 205.927C17.559 205.431 17.311 205.047 16.991 204.775C16.671 204.503 16.287 204.367 15.839 204.367C15.399 204.367 15.019 204.503 14.699 204.775C14.379 205.047 14.131 205.431 13.955 205.927C13.779 206.423 13.691 207.011 13.691 207.691C13.691 208.363 13.779 208.951 13.955 209.455C14.131 209.951 14.379 210.335 14.699 210.607C15.027 210.879 15.411 211.015 15.851 211.015ZM24.4408 212.311C23.7288 212.311 23.1048 212.119 22.5688 211.735C22.0328 211.343 21.6128 210.803 21.3088 210.115C21.0128 209.419 20.8648 208.611 20.8648 207.691C20.8648 206.763 21.0128 205.955 21.3088 205.267C21.6128 204.579 22.0288 204.043 22.5568 203.659C23.0928 203.275 23.7168 203.083 24.4288 203.083C25.1408 203.083 25.7608 203.275 26.2888 203.659C26.8248 204.043 27.2408 204.583 27.5368 205.279C27.8408 205.967 27.9928 206.771 27.9928 207.691C27.9928 208.611 27.8448 209.419 27.5488 210.115C27.2528 210.803 26.8368 211.343 26.3008 211.735C25.7728 212.119 25.1528 212.311 24.4408 212.311ZM24.4408 211.015C24.8808 211.015 25.2608 210.879 25.5808 210.607C25.9008 210.335 26.1488 209.951 26.3248 209.455C26.5008 208.959 26.5888 208.371 26.5888 207.691C26.5888 207.011 26.5008 206.423 26.3248 205.927C26.1488 205.431 25.9008 205.047 25.5808 204.775C25.2608 204.503 24.8768 204.367 24.4288 204.367C23.9888 204.367 23.6088 204.503 23.2888 204.775C22.9688 205.047 22.7208 205.431 22.5448 205.927C22.3688 206.423 22.2808 207.011 22.2808 207.691C22.2808 208.363 22.3688 208.951 22.5448 209.455C22.7208 209.951 22.9688 210.335 23.2888 210.607C23.6168 210.879 24.0008 211.015 24.4408 211.015ZM33.0307 212.311C32.3187 212.311 31.6947 212.119 31.1587 211.735C30.6227 211.343 30.2027 210.803 29.8987 210.115C29.6027 209.419 29.4547 208.611 29.4547 207.691C29.4547 206.763 29.6027 205.955 29.8987 205.267C30.2027 204.579 30.6187 204.043 31.1467 203.659C31.6827 203.275 32.3067 203.083 33.0187 203.083C33.7307 203.083 34.3507 203.275 34.8787 203.659C35.4147 204.043 35.8307 204.583 36.1267 205.279C36.4307 205.967 36.5827 206.771 36.5827 207.691C36.5827 208.611 36.4347 209.419 36.1387 210.115C35.8427 210.803 35.4267 211.343 34.8907 211.735C34.3627 212.119 33.7427 212.311 33.0307 212.311ZM33.0307 211.015C33.4707 211.015 33.8507 210.879 34.1707 210.607C34.4907 210.335 34.7387 209.951 34.9147 209.455C35.0907 208.959 35.1787 208.371 35.1787 207.691C35.1787 207.011 35.0907 206.423 34.9147 205.927C34.7387 205.431 34.4907 205.047 34.1707 204.775C33.8507 204.503 33.4667 204.367 33.0187 204.367C32.5787 204.367 32.1987 204.503 31.8787 204.775C31.5587 205.047 31.3107 205.431 31.1347 205.927C30.9587 206.423 30.8707 207.011 30.8707 207.691C30.8707 208.363 30.9587 208.951 31.1347 209.455C31.3107 209.951 31.5587 210.335 31.8787 210.607C32.2067 210.879 32.5907 211.015 33.0307 211.015Z" fill="#525252"/>
<path d="M12.0131 252.144C11.3011 252.144 10.6771 251.952 10.1411 251.568C9.60508 251.176 9.18508 250.636 8.88108 249.948C8.58508 249.252 8.43708 248.444 8.43708 247.524C8.43708 246.596 8.58508 245.788 8.88108 245.1C9.18508 244.412 9.60108 243.876 10.1291 243.492C10.6651 243.108 11.2891 242.916 12.0011 242.916C12.7131 242.916 13.3331 243.108 13.8611 243.492C14.3971 243.876 14.8131 244.416 15.1091 245.112C15.4131 245.8 15.5651 246.604 15.5651 247.524C15.5651 248.444 15.4171 249.252 15.1211 249.948C14.8251 250.636 14.4091 251.176 13.8731 251.568C13.3451 251.952 12.7251 252.144 12.0131 252.144ZM12.0131 250.848C12.4531 250.848 12.8331 250.712 13.1531 250.44C13.4731 250.168 13.7211 249.784 13.8971 249.288C14.0731 248.792 14.1611 248.204 14.1611 247.524C14.1611 246.844 14.0731 246.256 13.8971 245.76C13.7211 245.264 13.4731 244.88 13.1531 244.608C12.8331 244.336 12.4491 244.2 12.0011 244.2C11.5611 244.2 11.1811 244.336 10.8611 244.608C10.5411 244.88 10.2931 245.264 10.1171 245.76C9.94108 246.256 9.85308 246.844 9.85308 247.524C9.85308 248.196 9.94108 248.784 10.1171 249.288C10.2931 249.784 10.5411 250.168 10.8611 250.44C11.1891 250.712 11.5731 250.848 12.0131 250.848Z" fill="#525252"/>
</g>
<path d="M70 202C70 193.716 76.7157 187 85 187C93.2843 187 100 193.716 100 202V255H70V202Z" fill="#34CAA5" fill-opacity="0.1"/>
<path d="M130.545 150C130.545 141.716 137.261 135 145.545 135C153.83 135 160.545 141.716 160.545 150V255H130.545V150Z" fill="#34CAA5" fill-opacity="0.1"/>
<path d="M191.091 230C191.091 221.716 197.807 215 206.091 215C214.375 215 221.091 221.716 221.091 230V255H191.091V230Z" fill="#34CAA5" fill-opacity="0.1"/>
<path d="M251.636 109C251.636 100.716 258.352 94 266.636 94C274.921 94 281.636 100.716 281.636 109V255H251.636V109Z" fill="#34CAA5" fill-opacity="0.1"/>
<path d="M312.182 189C312.182 180.716 318.898 174 327.182 174C335.466 174 342.182 180.716 342.182 189V255H312.182V189Z" fill="#34CAA5" fill-opacity="0.1"/>
<path d="M372.727 54C372.727 45.7157 379.443 39 387.727 39C396.012 39 402.727 45.7157 402.727 54V255H372.727V54Z" fill="url(#paint0_linear_9412_3149)"/>
<path d="M433.273 189C433.273 180.716 439.988 174 448.273 174C456.557 174 463.273 180.716 463.273 189V255H433.273V189Z" fill="#34CAA5" fill-opacity="0.1"/>
<path d="M493.818 139C493.818 130.716 500.534 124 508.818 124C517.103 124 523.818 130.716 523.818 139V255H493.818V139Z" fill="#34CAA5" fill-opacity="0.1"/>
<path d="M554.364 88C554.364 79.7157 561.079 73 569.364 73C577.648 73 584.364 79.7157 584.364 88V255H554.364V88Z" fill="#34CAA5" fill-opacity="0.1"/>
<path d="M614.909 219C614.909 210.716 621.625 204 629.909 204C638.193 204 644.909 210.716 644.909 219V255H614.909V219Z" fill="#34CAA5" fill-opacity="0.1"/>
<path d="M675.455 99C675.455 90.7157 682.17 84 690.455 84C698.739 84 705.455 90.7157 705.455 99V255H675.455V99Z" fill="#34CAA5" fill-opacity="0.1"/>
<path d="M736 119C736 110.716 742.716 104 751 104C759.284 104 766 110.716 766 119V255H736V119Z" fill="#34CAA5" fill-opacity="0.1"/>
<g filter="url(#filter0_d_9412_3149)">
<path fill-rule="evenodd" clip-rule="evenodd" d="M346 12.0229C346 9.26153 348.239 7.02295 351 7.02295H421C423.761 7.02295 426 9.26153 426 12.0229V28.0229C426 30.7844 423.761 33.0229 421 33.0229L392 33.0229L386 39L380 33.0229L351 33.0229C348.239 33.0229 346 30.7844 346 28.0229V12.0229Z" fill="#090C2C"/>
<path d="M364.533 25.1139V14.2048H365.232V25.1139H364.533ZM366.719 17.5883C366.673 17.1849 366.486 16.8724 366.156 16.6508C365.827 16.4264 365.412 16.3141 364.912 16.3141C364.554 16.3141 364.244 16.371 363.983 16.4846C363.722 16.5954 363.518 16.7488 363.374 16.9448C363.232 17.138 363.161 17.3582 363.161 17.6053C363.161 17.8127 363.209 17.9917 363.305 18.1423C363.405 18.2928 363.534 18.4193 363.693 18.5215C363.855 18.621 364.028 18.7048 364.213 18.7729C364.398 18.8383 364.575 18.8923 364.746 18.9349L365.598 19.1565C365.876 19.2247 366.162 19.317 366.455 19.4335C366.747 19.5499 367.018 19.7033 367.268 19.8937C367.518 20.084 367.72 20.3198 367.874 20.6011C368.03 20.8823 368.108 21.219 368.108 21.611C368.108 22.1053 367.98 22.5443 367.724 22.9278C367.472 23.3113 367.104 23.6139 366.621 23.8354C366.141 24.057 365.56 24.1678 364.878 24.1678C364.224 24.1678 363.659 24.0641 363.182 23.8568C362.705 23.6494 362.331 23.3553 362.061 22.9747C361.791 22.5911 361.642 22.1366 361.614 21.611H362.935C362.96 21.9264 363.063 22.1891 363.241 22.3994C363.423 22.6068 363.655 22.7616 363.936 22.8639C364.22 22.9633 364.531 23.013 364.869 23.013C365.241 23.013 365.572 22.9548 365.862 22.8383C366.155 22.719 366.385 22.5542 366.553 22.344C366.72 22.1309 366.804 21.8823 366.804 21.5982C366.804 21.3397 366.73 21.1281 366.582 20.9633C366.438 20.7985 366.24 20.6622 365.99 20.5542C365.743 20.4462 365.463 20.3511 365.151 20.2687L364.119 19.9874C363.42 19.7971 362.866 19.5173 362.457 19.1479C362.051 18.7786 361.848 18.29 361.848 17.682C361.848 17.1792 361.984 16.7403 362.257 16.3653C362.53 15.9903 362.899 15.6991 363.365 15.4917C363.831 15.2815 364.357 15.1764 364.942 15.1764C365.533 15.1764 366.054 15.2801 366.506 15.4874C366.96 15.6948 367.318 15.9803 367.58 16.344C367.841 16.7048 367.977 17.1195 367.989 17.5883H366.719ZM369.379 22.3184V21.2531L373.15 15.2957H373.99V16.8639H373.457L370.76 21.1337V21.2019H375.929V22.3184H369.379ZM373.517 24.0229V21.9945L373.525 21.5087V15.2957H374.774V24.0229H373.517ZM380.294 24.1423C379.76 24.1423 379.28 24.04 378.854 23.8354C378.431 23.6281 378.093 23.344 377.84 22.9832C377.587 22.6224 377.452 22.2104 377.435 21.7474H378.713C378.745 22.1224 378.911 22.4306 379.212 22.6721C379.513 22.9136 379.874 23.0343 380.294 23.0343C380.63 23.0343 380.926 22.9576 381.185 22.8042C381.446 22.6479 381.651 22.4335 381.799 22.1607C381.949 21.888 382.025 21.5769 382.025 21.2275C382.025 20.8724 381.948 20.5556 381.794 20.2772C381.641 19.9988 381.429 19.7801 381.159 19.621C380.892 19.4619 380.586 19.3809 380.239 19.3781C379.975 19.3781 379.709 19.4235 379.442 19.5144C379.175 19.6053 378.959 19.7247 378.794 19.8724L377.588 19.6934L378.078 15.2957H382.877V16.4249H379.174L378.897 18.8667H378.948C379.118 18.7019 379.344 18.5641 379.625 18.4533C379.909 18.3426 380.213 18.2872 380.537 18.2872C381.069 18.2872 381.542 18.4136 381.956 18.6664C382.374 18.9193 382.702 19.2644 382.941 19.7019C383.182 20.1366 383.301 20.6366 383.299 21.2019C383.301 21.7673 383.174 22.2715 382.915 22.7147C382.659 23.1579 382.304 23.5073 381.85 23.763C381.398 24.0158 380.88 24.1423 380.294 24.1423ZM385.395 24.1039C385.162 24.1039 384.962 24.0215 384.794 23.8568C384.627 23.6891 384.543 23.4874 384.543 23.2516C384.543 23.0187 384.627 22.8198 384.794 22.6551C384.962 22.4874 385.162 22.4036 385.395 22.4036C385.628 22.4036 385.828 22.4874 385.996 22.6551C386.164 22.8198 386.248 23.0187 386.248 23.2516C386.248 23.4079 386.208 23.5514 386.128 23.682C386.051 23.8099 385.949 23.9122 385.821 23.9889C385.694 24.0656 385.551 24.1039 385.395 24.1039ZM390.659 24.1678C389.986 24.165 389.411 23.9874 388.933 23.6352C388.456 23.2829 388.091 22.7701 387.838 22.0968C387.585 21.4235 387.459 20.6124 387.459 19.6636C387.459 18.7176 387.585 17.9093 387.838 17.2389C388.094 16.5684 388.46 16.057 388.938 15.7048C389.418 15.3525 389.991 15.1764 390.659 15.1764C391.327 15.1764 391.899 15.3539 392.376 15.709C392.854 16.0613 393.219 16.5727 393.472 17.2431C393.727 17.9107 393.855 18.7176 393.855 19.6636C393.855 20.6153 393.729 21.4278 393.476 22.1011C393.223 22.7715 392.858 23.2843 392.381 23.6394C391.903 23.9917 391.33 24.1678 390.659 24.1678ZM390.659 23.0301C391.25 23.0301 391.712 22.7417 392.044 22.165C392.379 21.5883 392.547 20.7545 392.547 19.6636C392.547 18.9391 392.47 18.3269 392.317 17.8269C392.166 17.3241 391.949 16.9434 391.665 16.6849C391.384 16.4235 391.048 16.2928 390.659 16.2928C390.071 16.2928 389.609 16.5826 389.274 17.1622C388.939 17.7417 388.77 18.5755 388.767 19.6636C388.767 20.3908 388.842 21.0059 388.993 21.5087C389.146 22.0087 389.364 22.388 389.645 22.6465C389.926 22.9022 390.264 23.0301 390.659 23.0301ZM398.405 24.1678C397.732 24.165 397.157 23.9874 396.679 23.6352C396.202 23.2829 395.837 22.7701 395.584 22.0968C395.331 21.4235 395.205 20.6124 395.205 19.6636C395.205 18.7176 395.331 17.9093 395.584 17.2389C395.84 16.5684 396.206 16.057 396.684 15.7048C397.164 15.3525 397.738 15.1764 398.405 15.1764C399.073 15.1764 399.645 15.3539 400.123 15.709C400.6 16.0613 400.965 16.5727 401.218 17.2431C401.473 17.9107 401.601 18.7176 401.601 19.6636C401.601 20.6153 401.475 21.4278 401.222 22.1011C400.969 22.7715 400.604 23.2843 400.127 23.6394C399.65 23.9917 399.076 24.1678 398.405 24.1678ZM398.405 23.0301C398.996 23.0301 399.458 22.7417 399.79 22.165C400.125 21.5883 400.293 20.7545 400.293 19.6636C400.293 18.9391 400.216 18.3269 400.063 17.8269C399.912 17.3241 399.695 16.9434 399.411 16.6849C399.13 16.4235 398.794 16.2928 398.405 16.2928C397.817 16.2928 397.355 16.5826 397.02 17.1622C396.685 17.7417 396.516 18.5755 396.513 19.6636C396.513 20.3908 396.588 21.0059 396.739 21.5087C396.892 22.0087 397.11 22.388 397.391 22.6465C397.672 22.9022 398.01 23.0301 398.405 23.0301ZM406.151 24.1678C405.478 24.165 404.903 23.9874 404.425 23.6352C403.948 23.2829 403.583 22.7701 403.33 22.0968C403.077 21.4235 402.951 20.6124 402.951 19.6636C402.951 18.7176 403.077 17.9093 403.33 17.2389C403.586 16.5684 403.952 16.057 404.43 15.7048C404.91 15.3525 405.484 15.1764 406.151 15.1764C406.819 15.1764 407.391 15.3539 407.869 15.709C408.346 16.0613 408.711 16.5727 408.964 17.2431C409.219 17.9107 409.347 18.7176 409.347 19.6636C409.347 20.6153 409.221 21.4278 408.968 22.1011C408.715 22.7715 408.35 23.2843 407.873 23.6394C407.396 23.9917 406.822 24.1678 406.151 24.1678ZM406.151 23.0301C406.742 23.0301 407.204 22.7417 407.536 22.165C407.871 21.5883 408.039 20.7545 408.039 19.6636C408.039 18.9391 407.962 18.3269 407.809 17.8269C407.658 17.3241 407.441 16.9434 407.157 16.6849C406.876 16.4235 406.54 16.2928 406.151 16.2928C405.563 16.2928 405.102 16.5826 404.766 17.1622C404.431 17.7417 404.262 18.5755 404.259 19.6636C404.259 20.3908 404.335 21.0059 404.485 21.5087C404.638 22.0087 404.856 22.388 405.137 22.6465C405.418 22.9022 405.756 23.0301 406.151 23.0301Z" fill="white"/>
</g>
<path fill-rule="evenodd" clip-rule="evenodd" d="M70 0.5H765.413H70Z" fill="white"/>
<path d="M70 0.5H765.413" stroke="#EAEAEA" stroke-linecap="round" stroke-dasharray="4 4"/>
<path fill-rule="evenodd" clip-rule="evenodd" d="M70 28.7222H765.413H70Z" fill="white"/>
<path d="M70 28.7222H765.413" stroke="#EAEAEA" stroke-linecap="round" stroke-dasharray="4 4"/>
<path fill-rule="evenodd" clip-rule="evenodd" d="M70 56.9443H765.413H70Z" fill="white"/>
<path d="M70 56.9443H765.413" stroke="#EAEAEA" stroke-linecap="round" stroke-dasharray="4 4"/>
<path fill-rule="evenodd" clip-rule="evenodd" d="M70 85.1667H765.413H70Z" fill="white"/>
<path d="M70 85.1667H765.413" stroke="#EAEAEA" stroke-linecap="round" stroke-dasharray="4 4"/>
<path fill-rule="evenodd" clip-rule="evenodd" d="M70 113.389H765.413H70Z" fill="white"/>
<path d="M70 113.389H765.413" stroke="#EAEAEA" stroke-linecap="round" stroke-dasharray="4 4"/>
<path fill-rule="evenodd" clip-rule="evenodd" d="M70 141.611H765.413H70Z" fill="white"/>
<path d="M70 141.611H765.413" stroke="#EAEAEA" stroke-linecap="round" stroke-dasharray="4 4"/>
<path fill-rule="evenodd" clip-rule="evenodd" d="M70 169.833H765.413H70Z" fill="white"/>
<path d="M70 169.833H765.413" stroke="#EAEAEA" stroke-linecap="round" stroke-dasharray="4 4"/>
<path fill-rule="evenodd" clip-rule="evenodd" d="M70 198.056H765.413H70Z" fill="white"/>
<path d="M70 198.056H765.413" stroke="#EAEAEA" stroke-linecap="round" stroke-dasharray="4 4"/>
<path fill-rule="evenodd" clip-rule="evenodd" d="M70 226.278H765.413H70Z" fill="white"/>
<path d="M70 226.278H765.413" stroke="#EAEAEA" stroke-linecap="round" stroke-dasharray="4 4"/>
<path fill-rule="evenodd" clip-rule="evenodd" d="M70 254.5H765.413H70Z" fill="white"/>
<path d="M70 254.5H765.413" stroke="#EAEAEA" stroke-linecap="round" stroke-dasharray="4 4"/>
<g opacity="0.56">
<path d="M74.99 284V282.46H75.592C76.0587 282.46 76.432 282.325 76.712 282.054C76.992 281.774 77.132 281.401 77.132 280.934V273.57H78.77V280.878C78.77 281.513 78.6394 282.063 78.378 282.53C78.126 282.997 77.7574 283.361 77.272 283.622C76.796 283.874 76.236 284 75.592 284H74.99ZM83.0211 284.168C82.5078 284.168 82.0551 284.079 81.6631 283.902C81.2804 283.715 80.9818 283.463 80.7671 283.146C80.5524 282.819 80.4451 282.437 80.4451 281.998C80.4451 281.587 80.5338 281.219 80.7111 280.892C80.8978 280.565 81.1824 280.29 81.5651 280.066C81.9478 279.842 82.4284 279.683 83.0071 279.59L85.6391 279.156V280.402L83.3151 280.808C82.8951 280.883 82.5871 281.018 82.3911 281.214C82.1951 281.401 82.0971 281.643 82.0971 281.942C82.0971 282.231 82.2044 282.469 82.4191 282.656C82.6431 282.833 82.9278 282.922 83.2731 282.922C83.7024 282.922 84.0758 282.829 84.3931 282.642C84.7198 282.455 84.9718 282.208 85.1491 281.9C85.3264 281.583 85.4151 281.233 85.4151 280.85V278.904C85.4151 278.531 85.2751 278.227 84.9951 277.994C84.7244 277.751 84.3604 277.63 83.9031 277.63C83.4831 277.63 83.1144 277.742 82.7971 277.966C82.4891 278.181 82.2604 278.461 82.1111 278.806L80.7951 278.148C80.9351 277.775 81.1638 277.448 81.4811 277.168C81.7984 276.879 82.1671 276.655 82.5871 276.496C83.0164 276.337 83.4691 276.258 83.9451 276.258C84.5424 276.258 85.0698 276.37 85.5271 276.594C85.9938 276.818 86.3531 277.131 86.6051 277.532C86.8664 277.924 86.9971 278.381 86.9971 278.904V284H85.4851V282.628L85.8071 282.67C85.6298 282.978 85.4011 283.244 85.1211 283.468C84.8504 283.692 84.5378 283.865 84.1831 283.986C83.8378 284.107 83.4504 284.168 83.0211 284.168ZM88.8469 284V276.426H90.3589V277.91L90.1769 277.714C90.3635 277.238 90.6622 276.879 91.0729 276.636C91.4835 276.384 91.9595 276.258 92.5009 276.258C93.0609 276.258 93.5555 276.379 93.9849 276.622C94.4142 276.865 94.7502 277.201 94.9929 277.63C95.2355 278.059 95.3569 278.554 95.3569 279.114V284H93.7889V279.534C93.7889 279.151 93.7189 278.829 93.5789 278.568C93.4389 278.297 93.2382 278.092 92.9769 277.952C92.7249 277.803 92.4355 277.728 92.1089 277.728C91.7822 277.728 91.4882 277.803 91.2269 277.952C90.9749 278.092 90.7789 278.297 90.6389 278.568C90.4989 278.839 90.4289 279.161 90.4289 279.534V284H88.8469Z" fill="#525252"/>
<path d="M133.86 284V273.57H140.65V275.04H135.512V278.176H140.09V279.646H135.512V284H133.86ZM145.233 284.168C144.477 284.168 143.805 283.995 143.217 283.65C142.638 283.295 142.186 282.819 141.859 282.222C141.532 281.615 141.369 280.939 141.369 280.192C141.369 279.427 141.532 278.75 141.859 278.162C142.195 277.574 142.643 277.112 143.203 276.776C143.763 276.431 144.398 276.258 145.107 276.258C145.676 276.258 146.185 276.356 146.633 276.552C147.081 276.748 147.459 277.019 147.767 277.364C148.075 277.7 148.308 278.087 148.467 278.526C148.635 278.965 148.719 279.431 148.719 279.926C148.719 280.047 148.714 280.173 148.705 280.304C148.696 280.435 148.677 280.556 148.649 280.668H142.615V279.408H147.753L146.997 279.982C147.09 279.525 147.058 279.119 146.899 278.764C146.75 278.4 146.516 278.115 146.199 277.91C145.891 277.695 145.527 277.588 145.107 277.588C144.687 277.588 144.314 277.695 143.987 277.91C143.66 278.115 143.408 278.414 143.231 278.806C143.054 279.189 142.984 279.655 143.021 280.206C142.974 280.719 143.044 281.167 143.231 281.55C143.427 281.933 143.698 282.231 144.043 282.446C144.398 282.661 144.799 282.768 145.247 282.768C145.704 282.768 146.092 282.665 146.409 282.46C146.736 282.255 146.992 281.989 147.179 281.662L148.467 282.292C148.318 282.647 148.084 282.969 147.767 283.258C147.459 283.538 147.086 283.762 146.647 283.93C146.218 284.089 145.746 284.168 145.233 284.168ZM154.309 284.168C153.721 284.168 153.184 284.047 152.699 283.804C152.223 283.561 151.854 283.211 151.593 282.754L151.775 282.46V284H150.263V273.402H151.845V277.994L151.593 277.63C151.873 277.201 152.246 276.865 152.713 276.622C153.18 276.379 153.712 276.258 154.309 276.258C155.028 276.258 155.672 276.431 156.241 276.776C156.82 277.121 157.272 277.593 157.599 278.19C157.935 278.787 158.103 279.459 158.103 280.206C158.103 280.953 157.935 281.625 157.599 282.222C157.272 282.819 156.824 283.295 156.255 283.65C155.686 283.995 155.037 284.168 154.309 284.168ZM154.155 282.698C154.603 282.698 155 282.591 155.345 282.376C155.69 282.161 155.961 281.867 156.157 281.494C156.362 281.111 156.465 280.682 156.465 280.206C156.465 279.73 156.362 279.305 156.157 278.932C155.961 278.559 155.69 278.265 155.345 278.05C155 277.835 154.603 277.728 154.155 277.728C153.716 277.728 153.32 277.835 152.965 278.05C152.62 278.265 152.344 278.559 152.139 278.932C151.943 279.305 151.845 279.73 151.845 280.206C151.845 280.682 151.943 281.111 152.139 281.494C152.344 281.867 152.62 282.161 152.965 282.376C153.32 282.591 153.716 282.698 154.155 282.698Z" fill="#525252"/>
<path d="M194.627 284V273.57H196.167L200.087 279.002H199.317L203.167 273.57H204.707V284H203.069V275.516L203.685 275.684L199.751 281.06H199.583L195.733 275.684L196.279 275.516V284H194.627ZM208.977 284.168C208.464 284.168 208.011 284.079 207.619 283.902C207.236 283.715 206.938 283.463 206.723 283.146C206.508 282.819 206.401 282.437 206.401 281.998C206.401 281.587 206.49 281.219 206.667 280.892C206.854 280.565 207.138 280.29 207.521 280.066C207.904 279.842 208.384 279.683 208.963 279.59L211.595 279.156V280.402L209.271 280.808C208.851 280.883 208.543 281.018 208.347 281.214C208.151 281.401 208.053 281.643 208.053 281.942C208.053 282.231 208.16 282.469 208.375 282.656C208.599 282.833 208.884 282.922 209.229 282.922C209.658 282.922 210.032 282.829 210.349 282.642C210.676 282.455 210.928 282.208 211.105 281.9C211.282 281.583 211.371 281.233 211.371 280.85V278.904C211.371 278.531 211.231 278.227 210.951 277.994C210.68 277.751 210.316 277.63 209.859 277.63C209.439 277.63 209.07 277.742 208.753 277.966C208.445 278.181 208.216 278.461 208.067 278.806L206.751 278.148C206.891 277.775 207.12 277.448 207.437 277.168C207.754 276.879 208.123 276.655 208.543 276.496C208.972 276.337 209.425 276.258 209.901 276.258C210.498 276.258 211.026 276.37 211.483 276.594C211.95 276.818 212.309 277.131 212.561 277.532C212.822 277.924 212.953 278.381 212.953 278.904V284H211.441V282.628L211.763 282.67C211.586 282.978 211.357 283.244 211.077 283.468C210.806 283.692 210.494 283.865 210.139 283.986C209.794 284.107 209.406 284.168 208.977 284.168ZM214.803 284V276.426H216.315V277.952L216.175 277.728C216.343 277.233 216.614 276.879 216.987 276.664C217.36 276.44 217.808 276.328 218.331 276.328H218.793V277.77H218.135C217.612 277.77 217.188 277.933 216.861 278.26C216.544 278.577 216.385 279.035 216.385 279.632V284H214.803Z" fill="#525252"/>
<path d="M254.832 284L258.5 273.57H260.544L264.212 284H262.448L261.65 281.662H257.408L256.596 284H254.832ZM257.884 280.192H261.146L259.298 274.732H259.76L257.884 280.192ZM265.295 286.8V276.426H266.807V277.994L266.625 277.63C266.905 277.201 267.278 276.865 267.745 276.622C268.212 276.379 268.744 276.258 269.341 276.258C270.06 276.258 270.704 276.431 271.273 276.776C271.852 277.121 272.304 277.593 272.631 278.19C272.967 278.787 273.135 279.459 273.135 280.206C273.135 280.953 272.967 281.625 272.631 282.222C272.304 282.819 271.856 283.295 271.287 283.65C270.718 283.995 270.069 284.168 269.341 284.168C268.753 284.168 268.216 284.047 267.731 283.804C267.255 283.561 266.886 283.211 266.625 282.754L266.877 282.46V286.8H265.295ZM269.187 282.698C269.635 282.698 270.032 282.591 270.377 282.376C270.722 282.161 270.993 281.867 271.189 281.494C271.394 281.111 271.497 280.682 271.497 280.206C271.497 279.73 271.394 279.305 271.189 278.932C270.993 278.559 270.722 278.265 270.377 278.05C270.032 277.835 269.635 277.728 269.187 277.728C268.748 277.728 268.352 277.835 267.997 278.05C267.652 278.265 267.376 278.559 267.171 278.932C266.975 279.305 266.877 279.73 266.877 280.206C266.877 280.682 266.975 281.111 267.171 281.494C267.376 281.867 267.652 282.161 267.997 282.376C268.352 282.591 268.748 282.698 269.187 282.698ZM274.674 284V276.426H276.186V277.952L276.046 277.728C276.214 277.233 276.485 276.879 276.858 276.664C277.231 276.44 277.679 276.328 278.202 276.328H278.664V277.77H278.006C277.483 277.77 277.059 277.933 276.732 278.26C276.415 278.577 276.256 279.035 276.256 279.632V284H274.674Z" fill="#525252"/>
<path d="M316.201 284V273.57H317.741L321.661 279.002H320.891L324.741 273.57H326.281V284H324.643V275.516L325.259 275.684L321.325 281.06H321.157L317.307 275.684L317.853 275.516V284H316.201ZM331.839 284.168C331.083 284.168 330.411 283.995 329.823 283.65C329.245 283.295 328.792 282.819 328.465 282.222C328.139 281.615 327.975 280.939 327.975 280.192C327.975 279.427 328.139 278.75 328.465 278.162C328.801 277.574 329.249 277.112 329.809 276.776C330.369 276.431 331.004 276.258 331.713 276.258C332.283 276.258 332.791 276.356 333.239 276.552C333.687 276.748 334.065 277.019 334.373 277.364C334.681 277.7 334.915 278.087 335.073 278.526C335.241 278.965 335.325 279.431 335.325 279.926C335.325 280.047 335.321 280.173 335.311 280.304C335.302 280.435 335.283 280.556 335.255 280.668H329.221V279.408H334.359L333.603 279.982C333.697 279.525 333.664 279.119 333.505 278.764C333.356 278.4 333.123 278.115 332.805 277.91C332.497 277.695 332.133 277.588 331.713 277.588C331.293 277.588 330.92 277.695 330.593 277.91C330.267 278.115 330.015 278.414 329.837 278.806C329.66 279.189 329.59 279.655 329.627 280.206C329.581 280.719 329.651 281.167 329.837 281.55C330.033 281.933 330.304 282.231 330.649 282.446C331.004 282.661 331.405 282.768 331.853 282.768C332.311 282.768 332.698 282.665 333.015 282.46C333.342 282.255 333.599 281.989 333.785 281.662L335.073 282.292C334.924 282.647 334.691 282.969 334.373 283.258C334.065 283.538 333.692 283.762 333.253 283.93C332.824 284.089 332.353 284.168 331.839 284.168ZM336.869 284V276.426H338.451V284H336.869ZM336.869 275.39V273.57H338.451V275.39H336.869Z" fill="#525252"/>
<path d="M377.435 284V282.46H378.037C378.504 282.46 378.877 282.325 379.157 282.054C379.437 281.774 379.577 281.401 379.577 280.934V273.57H381.215V280.878C381.215 281.513 381.085 282.063 380.823 282.53C380.571 282.997 380.203 283.361 379.717 283.622C379.241 283.874 378.681 284 378.037 284H377.435ZM385.9 284.168C385.331 284.168 384.832 284.042 384.402 283.79C383.973 283.529 383.637 283.169 383.394 282.712C383.161 282.245 383.044 281.709 383.044 281.102V276.426H384.626V280.962C384.626 281.307 384.696 281.611 384.836 281.872C384.976 282.133 385.172 282.339 385.424 282.488C385.676 282.628 385.966 282.698 386.292 282.698C386.628 282.698 386.922 282.623 387.174 282.474C387.426 282.325 387.622 282.115 387.762 281.844C387.912 281.573 387.986 281.256 387.986 280.892V276.426H389.554V284H388.056V282.516L388.224 282.712C388.047 283.179 387.753 283.538 387.342 283.79C386.932 284.042 386.451 284.168 385.9 284.168ZM391.402 284V276.426H392.914V277.91L392.732 277.714C392.918 277.238 393.217 276.879 393.628 276.636C394.038 276.384 394.514 276.258 395.056 276.258C395.616 276.258 396.11 276.379 396.54 276.622C396.969 276.865 397.305 277.201 397.548 277.63C397.79 278.059 397.912 278.554 397.912 279.114V284H396.344V279.534C396.344 279.151 396.274 278.829 396.134 278.568C395.994 278.297 395.793 278.092 395.532 277.952C395.28 277.803 394.99 277.728 394.664 277.728C394.337 277.728 394.043 277.803 393.782 277.952C393.53 278.092 393.334 278.297 393.194 278.568C393.054 278.839 392.984 279.161 392.984 279.534V284H391.402Z" fill="#525252"/>
<path d="M440.321 284V282.46H440.923C441.39 282.46 441.763 282.325 442.043 282.054C442.323 281.774 442.463 281.401 442.463 280.934V273.57H444.101V280.878C444.101 281.513 443.97 282.063 443.709 282.53C443.457 282.997 443.088 283.361 442.603 283.622C442.127 283.874 441.567 284 440.923 284H440.321ZM448.786 284.168C448.217 284.168 447.717 284.042 447.288 283.79C446.859 283.529 446.523 283.169 446.28 282.712C446.047 282.245 445.93 281.709 445.93 281.102V276.426H447.512V280.962C447.512 281.307 447.582 281.611 447.722 281.872C447.862 282.133 448.058 282.339 448.31 282.488C448.562 282.628 448.851 282.698 449.178 282.698C449.514 282.698 449.808 282.623 450.06 282.474C450.312 282.325 450.508 282.115 450.648 281.844C450.797 281.573 450.872 281.256 450.872 280.892V276.426H452.44V284H450.942V282.516L451.11 282.712C450.933 283.179 450.639 283.538 450.228 283.79C449.817 284.042 449.337 284.168 448.786 284.168ZM454.287 284V273.402H455.869V284H454.287Z" fill="#525252"/>
<path d="M495.437 284L499.105 273.57H501.149L504.817 284H503.053L502.255 281.662H498.013L497.201 284H495.437ZM498.489 280.192H501.751L499.903 274.732H500.365L498.489 280.192ZM508.466 284.168C507.897 284.168 507.397 284.042 506.968 283.79C506.539 283.529 506.203 283.169 505.96 282.712C505.727 282.245 505.61 281.709 505.61 281.102V276.426H507.192V280.962C507.192 281.307 507.262 281.611 507.402 281.872C507.542 282.133 507.738 282.339 507.99 282.488C508.242 282.628 508.531 282.698 508.858 282.698C509.194 282.698 509.488 282.623 509.74 282.474C509.992 282.325 510.188 282.115 510.328 281.844C510.477 281.573 510.552 281.256 510.552 280.892V276.426H512.12V284H510.622V282.516L510.79 282.712C510.613 283.179 510.319 283.538 509.908 283.79C509.497 284.042 509.017 284.168 508.466 284.168ZM517.621 287.08C517.07 287.08 516.562 286.991 516.095 286.814C515.628 286.637 515.227 286.389 514.891 286.072C514.555 285.764 514.303 285.4 514.135 284.98L515.591 284.378C515.722 284.733 515.96 285.027 516.305 285.26C516.66 285.493 517.094 285.61 517.607 285.61C518.008 285.61 518.368 285.531 518.685 285.372C519.002 285.223 519.254 284.999 519.441 284.7C519.628 284.411 519.721 284.061 519.721 283.65V281.942L520.001 282.264C519.74 282.749 519.376 283.118 518.909 283.37C518.452 283.622 517.934 283.748 517.355 283.748C516.655 283.748 516.025 283.585 515.465 283.258C514.905 282.931 514.462 282.483 514.135 281.914C513.818 281.345 513.659 280.705 513.659 279.996C513.659 279.277 513.818 278.638 514.135 278.078C514.462 277.518 514.9 277.075 515.451 276.748C516.002 276.421 516.632 276.258 517.341 276.258C517.92 276.258 518.433 276.384 518.881 276.636C519.338 276.879 519.712 277.233 520.001 277.7L519.791 278.092V276.426H521.289V283.65C521.289 284.303 521.13 284.887 520.813 285.4C520.505 285.923 520.076 286.333 519.525 286.632C518.974 286.931 518.34 287.08 517.621 287.08ZM517.537 282.278C517.957 282.278 518.33 282.18 518.657 281.984C518.984 281.779 519.24 281.508 519.427 281.172C519.623 280.827 519.721 280.439 519.721 280.01C519.721 279.581 519.623 279.193 519.427 278.848C519.231 278.503 518.97 278.232 518.643 278.036C518.316 277.831 517.948 277.728 517.537 277.728C517.108 277.728 516.725 277.831 516.389 278.036C516.053 278.232 515.787 278.503 515.591 278.848C515.404 279.184 515.311 279.571 515.311 280.01C515.311 280.43 515.404 280.813 515.591 281.158C515.787 281.503 516.053 281.779 516.389 281.984C516.725 282.18 517.108 282.278 517.537 282.278Z" fill="#525252"/>
<path d="M560.467 284.168C559.814 284.168 559.207 284.047 558.647 283.804C558.087 283.552 557.611 283.211 557.219 282.782C556.827 282.353 556.538 281.858 556.351 281.298L557.751 280.71C558.003 281.354 558.372 281.849 558.857 282.194C559.343 282.539 559.903 282.712 560.537 282.712C560.911 282.712 561.237 282.656 561.517 282.544C561.797 282.423 562.012 282.255 562.161 282.04C562.32 281.825 562.399 281.578 562.399 281.298C562.399 280.915 562.292 280.612 562.077 280.388C561.863 280.164 561.545 279.987 561.125 279.856L559.165 279.24C558.381 278.997 557.784 278.629 557.373 278.134C556.963 277.63 556.757 277.042 556.757 276.37C556.757 275.782 556.902 275.269 557.191 274.83C557.481 274.382 557.877 274.032 558.381 273.78C558.895 273.528 559.478 273.402 560.131 273.402C560.757 273.402 561.326 273.514 561.839 273.738C562.353 273.953 562.791 274.251 563.155 274.634C563.529 275.017 563.799 275.46 563.967 275.964L562.595 276.566C562.39 276.015 562.068 275.591 561.629 275.292C561.2 274.993 560.701 274.844 560.131 274.844C559.786 274.844 559.483 274.905 559.221 275.026C558.96 275.138 558.755 275.306 558.605 275.53C558.465 275.745 558.395 275.997 558.395 276.286C558.395 276.622 558.503 276.921 558.717 277.182C558.932 277.443 559.259 277.639 559.697 277.77L561.517 278.344C562.348 278.596 562.973 278.96 563.393 279.436C563.813 279.903 564.023 280.486 564.023 281.186C564.023 281.765 563.869 282.278 563.561 282.726C563.263 283.174 562.847 283.529 562.315 283.79C561.783 284.042 561.167 284.168 560.467 284.168ZM569.28 284.168C568.524 284.168 567.852 283.995 567.264 283.65C566.685 283.295 566.232 282.819 565.906 282.222C565.579 281.615 565.416 280.939 565.416 280.192C565.416 279.427 565.579 278.75 565.906 278.162C566.242 277.574 566.69 277.112 567.25 276.776C567.81 276.431 568.444 276.258 569.154 276.258C569.723 276.258 570.232 276.356 570.68 276.552C571.128 276.748 571.506 277.019 571.814 277.364C572.122 277.7 572.355 278.087 572.514 278.526C572.682 278.965 572.766 279.431 572.766 279.926C572.766 280.047 572.761 280.173 572.752 280.304C572.742 280.435 572.724 280.556 572.696 280.668H566.662V279.408H571.8L571.044 279.982C571.137 279.525 571.104 279.119 570.946 278.764C570.796 278.4 570.563 278.115 570.246 277.91C569.938 277.695 569.574 277.588 569.154 277.588C568.734 277.588 568.36 277.695 568.034 277.91C567.707 278.115 567.455 278.414 567.278 278.806C567.1 279.189 567.03 279.655 567.068 280.206C567.021 280.719 567.091 281.167 567.278 281.55C567.474 281.933 567.744 282.231 568.09 282.446C568.444 282.661 568.846 282.768 569.294 282.768C569.751 282.768 570.138 282.665 570.456 282.46C570.782 282.255 571.039 281.989 571.226 281.662L572.514 282.292C572.364 282.647 572.131 282.969 571.814 283.258C571.506 283.538 571.132 283.762 570.694 283.93C570.264 284.089 569.793 284.168 569.28 284.168ZM574.31 286.8V276.426H575.822V277.994L575.64 277.63C575.92 277.201 576.293 276.865 576.76 276.622C577.226 276.379 577.758 276.258 578.356 276.258C579.074 276.258 579.718 276.431 580.288 276.776C580.866 277.121 581.319 277.593 581.646 278.19C581.982 278.787 582.15 279.459 582.15 280.206C582.15 280.953 581.982 281.625 581.646 282.222C581.319 282.819 580.871 283.295 580.302 283.65C579.732 283.995 579.084 284.168 578.356 284.168C577.768 284.168 577.231 284.047 576.746 283.804C576.27 283.561 575.901 283.211 575.64 282.754L575.892 282.46V286.8H574.31ZM578.202 282.698C578.65 282.698 579.046 282.591 579.392 282.376C579.737 282.161 580.008 281.867 580.204 281.494C580.409 281.111 580.512 280.682 580.512 280.206C580.512 279.73 580.409 279.305 580.204 278.932C580.008 278.559 579.737 278.265 579.392 278.05C579.046 277.835 578.65 277.728 578.202 277.728C577.763 277.728 577.366 277.835 577.012 278.05C576.666 278.265 576.391 278.559 576.186 278.932C575.99 279.305 575.892 279.73 575.892 280.206C575.892 280.682 575.99 281.111 576.186 281.494C576.391 281.867 576.666 282.161 577.012 282.376C577.366 282.591 577.763 282.698 578.202 282.698Z" fill="#525252"/>
<path d="M622.942 284.168C622.186 284.168 621.481 284.033 620.828 283.762C620.184 283.491 619.615 283.113 619.12 282.628C618.635 282.143 618.252 281.573 617.972 280.92C617.701 280.267 617.566 279.553 617.566 278.778C617.566 278.003 617.701 277.289 617.972 276.636C618.252 275.973 618.635 275.404 619.12 274.928C619.605 274.443 620.175 274.069 620.828 273.808C621.481 273.537 622.186 273.402 622.942 273.402C623.707 273.402 624.412 273.537 625.056 273.808C625.709 274.069 626.279 274.443 626.764 274.928C627.259 275.413 627.641 275.983 627.912 276.636C628.183 277.289 628.318 278.003 628.318 278.778C628.318 279.553 628.178 280.267 627.898 280.92C627.627 281.573 627.249 282.143 626.764 282.628C626.279 283.113 625.709 283.491 625.056 283.762C624.403 284.033 623.698 284.168 622.942 284.168ZM622.942 282.656C623.483 282.656 623.978 282.558 624.426 282.362C624.883 282.166 625.28 281.895 625.616 281.55C625.952 281.195 626.213 280.785 626.4 280.318C626.587 279.842 626.68 279.329 626.68 278.778C626.68 278.227 626.587 277.719 626.4 277.252C626.213 276.785 625.952 276.375 625.616 276.02C625.28 275.665 624.883 275.39 624.426 275.194C623.978 274.998 623.483 274.9 622.942 274.9C622.401 274.9 621.901 274.998 621.444 275.194C620.996 275.39 620.604 275.665 620.268 276.02C619.932 276.375 619.671 276.785 619.484 277.252C619.307 277.719 619.218 278.227 619.218 278.778C619.218 279.329 619.307 279.842 619.484 280.318C619.671 280.785 619.932 281.195 620.268 281.55C620.604 281.895 621.001 282.166 621.458 282.362C621.915 282.558 622.41 282.656 622.942 282.656ZM630.011 284V273.402H631.593V280.5L630.977 280.346L634.771 276.426H636.745L633.889 279.464L636.871 284H635.051L632.391 279.982L633.329 279.856L631.089 282.236L631.593 281.186V284H630.011ZM641.23 284.084C640.437 284.084 639.821 283.86 639.382 283.412C638.944 282.964 638.724 282.334 638.724 281.522V277.854H637.394V276.426H637.604C637.959 276.426 638.234 276.323 638.43 276.118C638.626 275.913 638.724 275.633 638.724 275.278V274.69H640.306V276.426H642.028V277.854H640.306V281.452C640.306 281.713 640.348 281.937 640.432 282.124C640.516 282.301 640.652 282.441 640.838 282.544C641.025 282.637 641.268 282.684 641.566 282.684C641.641 282.684 641.725 282.679 641.818 282.67C641.912 282.661 642 282.651 642.084 282.642V284C641.954 284.019 641.809 284.037 641.65 284.056C641.492 284.075 641.352 284.084 641.23 284.084Z" fill="#525252"/>
<path d="M677.8 284V273.57H679.13L684.982 281.648L684.352 281.746V273.57H685.99V284H684.66L678.85 275.866L679.452 275.754V284H677.8ZM691.649 284.168C690.921 284.168 690.254 283.995 689.647 283.65C689.05 283.305 688.574 282.833 688.219 282.236C687.865 281.639 687.687 280.962 687.687 280.206C687.687 279.441 687.865 278.764 688.219 278.176C688.574 277.579 689.05 277.112 689.647 276.776C690.245 276.431 690.912 276.258 691.649 276.258C692.396 276.258 693.063 276.431 693.651 276.776C694.249 277.112 694.72 277.579 695.065 278.176C695.42 278.764 695.597 279.441 695.597 280.206C695.597 280.971 695.42 281.653 695.065 282.25C694.711 282.847 694.235 283.319 693.637 283.664C693.04 284 692.377 284.168 691.649 284.168ZM691.649 282.698C692.097 282.698 692.494 282.591 692.839 282.376C693.185 282.161 693.455 281.867 693.651 281.494C693.857 281.111 693.959 280.682 693.959 280.206C693.959 279.73 693.857 279.305 693.651 278.932C693.455 278.559 693.185 278.265 692.839 278.05C692.494 277.835 692.097 277.728 691.649 277.728C691.211 277.728 690.814 277.835 690.459 278.05C690.114 278.265 689.839 278.559 689.633 278.932C689.437 279.305 689.339 279.73 689.339 280.206C689.339 280.682 689.437 281.111 689.633 281.494C689.839 281.867 690.114 282.161 690.459 282.376C690.814 282.591 691.211 282.698 691.649 282.698ZM699.203 284L696.235 276.426H697.957L700.239 282.6H699.609L701.891 276.426H703.627L700.645 284H699.203Z" fill="#525252"/>
<path d="M738.765 284V273.57H742.181C743.263 273.57 744.201 273.789 744.995 274.228C745.797 274.657 746.418 275.264 746.857 276.048C747.295 276.832 747.515 277.742 747.515 278.778C747.515 279.805 747.295 280.715 746.857 281.508C746.418 282.292 745.797 282.903 744.995 283.342C744.201 283.781 743.263 284 742.181 284H738.765ZM740.417 282.53H742.209C742.946 282.53 743.585 282.376 744.127 282.068C744.677 281.76 745.102 281.326 745.401 280.766C745.699 280.206 745.849 279.543 745.849 278.778C745.849 278.013 745.695 277.355 745.387 276.804C745.088 276.244 744.668 275.81 744.127 275.502C743.585 275.194 742.946 275.04 742.209 275.04H740.417V282.53ZM752.543 284.168C751.787 284.168 751.115 283.995 750.527 283.65C749.949 283.295 749.496 282.819 749.169 282.222C748.843 281.615 748.679 280.939 748.679 280.192C748.679 279.427 748.843 278.75 749.169 278.162C749.505 277.574 749.953 277.112 750.513 276.776C751.073 276.431 751.708 276.258 752.417 276.258C752.987 276.258 753.495 276.356 753.943 276.552C754.391 276.748 754.769 277.019 755.077 277.364C755.385 277.7 755.619 278.087 755.777 278.526C755.945 278.965 756.029 279.431 756.029 279.926C756.029 280.047 756.025 280.173 756.015 280.304C756.006 280.435 755.987 280.556 755.959 280.668H749.925V279.408H755.063L754.307 279.982C754.401 279.525 754.368 279.119 754.209 278.764C754.06 278.4 753.827 278.115 753.509 277.91C753.201 277.695 752.837 277.588 752.417 277.588C751.997 277.588 751.624 277.695 751.297 277.91C750.971 278.115 750.719 278.414 750.541 278.806C750.364 279.189 750.294 279.655 750.331 280.206C750.285 280.719 750.355 281.167 750.541 281.55C750.737 281.933 751.008 282.231 751.353 282.446C751.708 282.661 752.109 282.768 752.557 282.768C753.015 282.768 753.402 282.665 753.719 282.46C754.046 282.255 754.303 281.989 754.489 281.662L755.777 282.292C755.628 282.647 755.395 282.969 755.077 283.258C754.769 283.538 754.396 283.762 753.957 283.93C753.528 284.089 753.057 284.168 752.543 284.168ZM760.373 284.168C759.599 284.168 758.917 283.977 758.329 283.594C757.751 283.211 757.345 282.698 757.111 282.054L758.329 281.48C758.535 281.909 758.815 282.25 759.169 282.502C759.533 282.754 759.935 282.88 760.373 282.88C760.747 282.88 761.05 282.796 761.283 282.628C761.517 282.46 761.633 282.231 761.633 281.942C761.633 281.755 761.582 281.606 761.479 281.494C761.377 281.373 761.246 281.275 761.087 281.2C760.938 281.125 760.784 281.069 760.625 281.032L759.435 280.696C758.782 280.509 758.292 280.229 757.965 279.856C757.648 279.473 757.489 279.03 757.489 278.526C757.489 278.069 757.606 277.672 757.839 277.336C758.073 276.991 758.395 276.725 758.805 276.538C759.216 276.351 759.678 276.258 760.191 276.258C760.882 276.258 761.498 276.431 762.039 276.776C762.581 277.112 762.963 277.583 763.187 278.19L761.969 278.764C761.82 278.4 761.582 278.111 761.255 277.896C760.938 277.681 760.579 277.574 760.177 277.574C759.832 277.574 759.557 277.658 759.351 277.826C759.146 277.985 759.043 278.195 759.043 278.456C759.043 278.633 759.09 278.783 759.183 278.904C759.277 279.016 759.398 279.109 759.547 279.184C759.697 279.249 759.851 279.305 760.009 279.352L761.241 279.716C761.867 279.893 762.347 280.173 762.683 280.556C763.019 280.929 763.187 281.377 763.187 281.9C763.187 282.348 763.066 282.745 762.823 283.09C762.59 283.426 762.263 283.692 761.843 283.888C761.423 284.075 760.933 284.168 760.373 284.168Z" fill="#525252"/>
</g>
<defs>
<filter id="filter0_d_9412_3149" x="340" y="3.02295" width="96" height="47.9771" filterUnits="userSpaceOnUse" color-interpolation-filters="sRGB">
<feFlood flood-opacity="0" result="BackgroundImageFix"/>
<feColorMatrix in="SourceAlpha" type="matrix" values="0 0 0 0 0 0 0 0 0 0 0 0 0 0 0 0 0 0 127 0" result="hardAlpha"/>
<feOffset dx="2" dy="4"/>
<feGaussianBlur stdDeviation="4"/>
<feComposite in2="hardAlpha" operator="out"/>
<feColorMatrix type="matrix" values="0 0 0 0 0 0 0 0 0 0 0 0 0 0 0 0 0 0 0.1 0"/>
<feBlend mode="normal" in2="BackgroundImageFix" result="effect1_dropShadow_9412_3149"/>
<feBlend mode="normal" in="SourceGraphic" in2="effect1_dropShadow_9412_3149" result="shape"/>
</filter>
<linearGradient id="paint0_linear_9412_3149" x1="387.727" y1="39" x2="387.727" y2="255" gradientUnits="userSpaceOnUse">
<stop stop-color="#34CAA5"/>
<stop offset="1" stop-color="#34CAA5" stop-opacity="0"/>
</linearGradient>
</defs>
</svg>
