<svg width="16" height="16" viewBox="0 0 16 16" fill="none" xmlns="http://www.w3.org/2000/svg">
<path d="M5.99976 11.8334C5.93309 11.8334 5.87309 11.82 5.80642 11.7934C5.61976 11.72 5.49976 11.5334 5.49976 11.3334V7.33337C5.49976 7.06004 5.72642 6.83337 5.99976 6.83337C6.27309 6.83337 6.49976 7.06004 6.49976 7.33337V10.1267L6.97976 9.64671C7.17309 9.45337 7.49309 9.45337 7.68642 9.64671C7.87976 9.84004 7.87976 10.16 7.68642 10.3534L6.35309 11.6867C6.25976 11.78 6.12642 11.8334 5.99976 11.8334Z" fill="#292D32"/>
<path d="M5.99988 11.8334C5.87321 11.8334 5.74655 11.7867 5.64655 11.6867L4.31321 10.3534C4.11988 10.16 4.11988 9.84004 4.31321 9.64671C4.50655 9.45338 4.82655 9.45338 5.01988 9.64671L6.35321 10.98C6.54655 11.1734 6.54655 11.4934 6.35321 11.6867C6.25321 11.7867 6.12655 11.8334 5.99988 11.8334Z" fill="#292D32"/>
<path d="M9.99992 15.1667H5.99992C2.37992 15.1667 0.833252 13.62 0.833252 10V6.00004C0.833252 2.38004 2.37992 0.833374 5.99992 0.833374H9.33325C9.60658 0.833374 9.83325 1.06004 9.83325 1.33337C9.83325 1.60671 9.60658 1.83337 9.33325 1.83337H5.99992C2.92658 1.83337 1.83325 2.92671 1.83325 6.00004V10C1.83325 13.0734 2.92658 14.1667 5.99992 14.1667H9.99992C13.0733 14.1667 14.1666 13.0734 14.1666 10V6.66671C14.1666 6.39337 14.3933 6.16671 14.6666 6.16671C14.9399 6.16671 15.1666 6.39337 15.1666 6.66671V10C15.1666 13.62 13.6199 15.1667 9.99992 15.1667Z" fill="#292D32"/>
<path d="M14.6666 7.1667H11.9999C9.71992 7.1667 8.83325 6.28003 8.83325 4.00003V1.33337C8.83325 1.13337 8.95325 0.9467 9.13992 0.873366C9.32659 0.793366 9.53992 0.840033 9.68659 0.980033L15.0199 6.31337C15.1599 6.45337 15.2066 6.67337 15.1266 6.86003C15.0466 7.0467 14.8666 7.1667 14.6666 7.1667ZM9.83325 2.54003V4.00003C9.83325 5.72003 10.2799 6.1667 11.9999 6.1667H13.4599L9.83325 2.54003Z" fill="#292D32"/>
</svg>
